<?xml version="1.0" encoding="iso-8859-1"?>
<!-- Generator: Adobe Illustrator 19.0.0, SVG Export Plug-In . SVG Version: 6.00 Build 0)  -->
<svg version="1.1" id="Layer_1" xmlns="http://www.w3.org/2000/svg" xmlns:xlink="http://www.w3.org/1999/xlink" x="0px" y="0px"
	 viewBox="0 0 512.002 512.002" style="enable-background:new 0 0 512.002 512.002;" xml:space="preserve">
<g>
	<g>
		<path d="M361.461,225.296c-11.33-8.988-20.694-20.332-27.358-33.296l-65.887,54.064c-13.889-11.727-30.673-20.423-49.582-24.736
			c-25.298-5.773-51.19-3.108-74.431,7.392l-8.563-12.027c-9.292,11.086-21.341,19.775-35.083,25.021l8.225,11.553
			c-15.352,15.449-26.146,34.892-31.11,56.652c-14.439,63.288,25.302,126.524,88.591,140.963c8.779,2.004,17.549,2.963,26.197,2.963
			c53.687,0,102.329-37.047,114.765-91.554c6.672-29.25,1.752-58.479-11.697-82.894L361.461,225.296z M182.458,391.885
			c-1.823,7.991-8.926,13.408-16.789,13.408c-1.27,0-2.56-0.142-3.85-0.437c-32.367-7.385-52.691-39.723-45.306-72.089
			c2.117-9.281,11.358-15.09,20.638-12.971c9.281,2.117,15.088,11.358,12.971,20.638c-1.528,6.701-0.356,13.597,3.301,19.416
			c3.657,5.82,9.363,9.867,16.063,11.396C178.768,373.364,184.575,382.605,182.458,391.885z"/>
	</g>
</g>
<g>
	<g>
		<path d="M443.878,60.382c-22.81-5.201-46.283-1.212-66.094,11.237c-19.81,12.451-33.586,31.87-38.789,54.68
			c-10.744,47.09,18.826,94.14,65.917,104.884v0.001c6.533,1.49,13.057,2.203,19.492,2.203c39.947,0,76.139-27.565,85.393-68.122
			C520.538,118.178,490.968,71.127,443.878,60.382z"/>
	</g>
</g>
<g>
	<g>
		<path d="M129.651,124.586c-9.977-15.877-25.542-26.918-43.824-31.088c-37.742-8.611-75.449,15.09-84.06,52.83
			s15.088,75.449,52.828,84.059c5.236,1.195,10.466,1.767,15.622,1.767c32.016,0,61.022-22.092,68.438-54.597
			C142.827,159.274,139.63,140.463,129.651,124.586z"/>
	</g>
</g>
<g>
</g>
<g>
</g>
<g>
</g>
<g>
</g>
<g>
</g>
<g>
</g>
<g>
</g>
<g>
</g>
<g>
</g>
<g>
</g>
<g>
</g>
<g>
</g>
<g>
</g>
<g>
</g>
<g>
</g>
</svg>
